HIERARCHY
ROOT hip
{
	OFFSET 0.000000 0.000000 0.000000 
	CHANNELS 6 Xposition Yposition Zposition Xrotation Zrotation Yrotation
	JOINT abdomen
	{
		OFFSET 0.000000 3.402643 0.000000 
		CHANNELS 3 Xrotation Zrotation Yrotation
		JOINT chest
		{
			OFFSET 0.000000 8.438565 -0.680529 
			CHANNELS 3 Xrotation Zrotation Yrotation
			JOINT neck
			{
				OFFSET 0.000000 10.207942 -0.272212 
				CHANNELS 3 Xrotation Zrotation Yrotation
				JOINT head
				{
					OFFSET 0.000000 3.130431 0.000000 
					CHANNELS 3 Xrotation Zrotation Yrotation
					End Site
					{
						OFFSET 0.000000 3.130435 0.000000 
					}
				}
			}
			JOINT lCollar
			{
				OFFSET 3.470700 6.669187 -0.816635 
				CHANNELS 3 Yrotation Zrotation Xrotation
				JOINT lShldr
				{
					OFFSET 3.198488 0.000000 0.000000 
					CHANNELS 3 Zrotation Yrotation Xrotation
					JOINT lForeArm
					{
						OFFSET 10.139888 0.000000 0.000000 
						CHANNELS 3 Yrotation Zrotation Xrotation
						JOINT lHand
						{
							OFFSET 8.370511 0.000000 0.000000 
							CHANNELS 3 Zrotation Yrotation Xrotation
							End Site
							{
								OFFSET 4.083176 0.000000 0.000000 
							}
						}
					}
				}
			}
			JOINT rCollar
			{
				OFFSET -3.470700 6.669187 -0.816635 
				CHANNELS 3 Yrotation Zrotation Xrotation
				JOINT rShldr
				{
					OFFSET -3.198488 0.000000 0.000000 
					CHANNELS 3 Zrotation Yrotation Xrotation
					JOINT rForeArm
					{
						OFFSET -10.139888 0.000000 0.000000 
						CHANNELS 3 Yrotation Zrotation Xrotation
						JOINT rHand
						{
							OFFSET -8.370511 0.000000 0.000000 
							CHANNELS 3 Zrotation Yrotation Xrotation
							End Site
							{
								OFFSET -4.083176 0.000000 0.000000 
							}
						}
					}
				}
			}
		}
	}
	JOINT lThigh
	{
		OFFSET 5.308129 -1.633274 1.361059 
		CHANNELS 3 Xrotation Zrotation Yrotation
		JOINT lShin
		{
			OFFSET -2.041588 -20.007561 0.000000 
			CHANNELS 3 Xrotation Zrotation Yrotation
			JOINT lFoot
			{
				OFFSET 0.000000 -19.190928 -1.224953 
				CHANNELS 3 Xrotation Yrotation Zrotation
				End Site
				{
					OFFSET 0.000000 -2.449906 4.627600 
				}
			}
		}
	}
	JOINT rThigh
	{
		OFFSET -5.308129 -1.633274 1.361059 
		CHANNELS 3 Xrotation Zrotation Yrotation
		JOINT rShin
		{
			OFFSET 2.041588 -20.007561 0.000000 
			CHANNELS 3 Xrotation Zrotation Yrotation
			JOINT rFoot
			{
				OFFSET 0.000000 -19.190928 -1.224953 
				CHANNELS 3 Xrotation Yrotation Zrotation
				End Site
				{
					OFFSET 0.000000 -2.449906 4.627600 
				}
			}
		}
	}
}
MOTION
Frames: 13
Frame Time: 0.016667
5.191579 48.192879 -20.911531 9.409509 -0.015686 -57.626953 39.664825 5.975996 3.336508 2.164061 2.186241 2.901956 -4.386432 -6.264878 0.305649 0.575382 -7.950797 40.835545 -11.678776 -0.849034 -0.051070 -24.568808 1.563064 -6.162773 -90.160461 5.000000 0.161548 -17.892302 -18.122110 19.881639 10.460593 -5.499693 0.278399 33.836254 76.048347 12.308091 101.697975 -5.000000 2.450869 30.784531 -7.550681 16.221933 -39.503651 27.054913 1.575994 44.914513 -5.119651 -5.564193 -6.598611 13.451310 -6.552281 -17.128145 -12.304018 -8.182013 43.370220 7.216029 7.442190 -25.050488 -11.261746 10.459078 
5.120052 47.977261 -21.055876 9.081826 -0.371039 -57.648380 39.862747 6.076726 3.505086 2.223945 2.117795 3.048367 -4.683235 -6.191456 0.333824 0.665052 -8.088154 40.751781 -11.522814 -1.122133 -0.065141 -24.491423 1.468027 -6.221001 -91.303383 5.000000 0.981269 -18.331779 -18.213228 20.352360 10.011001 -5.421598 0.274343 32.459248 76.187065 11.017072 102.360046 -5.000000 2.576986 31.025621 -7.367353 15.444852 -39.677383 27.392410 1.461173 45.965965 -5.185454 -5.835155 -7.026702 13.403918 -6.509461 -17.513086 -12.142731 -7.709928 45.057743 6.933420 7.602275 -25.720827 -11.721626 10.378901 
5.037942 47.773335 -21.179010 8.770451 -0.834434 -57.499901 40.112347 6.295690 3.727319 2.301387 2.068960 3.097173 -4.932072 -5.941313 0.355958 0.756612 -8.243675 40.522976 -11.484039 -1.346450 -0.076696 -24.559601 1.261084 -6.303617 -92.392578 5.000000 1.759739 -18.827291 -18.091539 21.095560 9.170022 -5.177644 0.261684 31.658932 76.426514 10.431595 102.832253 -5.000000 2.656097 31.116154 -7.148663 14.832717 -39.796070 27.777124 1.332735 46.954262 -5.354401 -6.300430 -7.413275 13.309177 -6.395467 -17.586897 -12.059692 -7.461732 46.454117 6.858008 7.952274 -26.480171 -12.233638 10.121054 
4.955829 47.569412 -21.302147 8.466485 -1.301642 -57.357067 40.363438 6.513703 3.949922 2.378779 2.020126 3.136214 -5.189363 -5.692626 0.367476 0.855693 -8.392492 40.293091 -11.455076 -1.570765 -0.088248 -24.626726 1.049884 -6.394552 -93.468956 5.000000 2.538830 -19.318550 -17.964140 21.831495 8.319292 -4.923935 0.247678 30.795237 76.667908 9.787436 103.294327 -5.000000 2.730177 31.215218 -6.931233 14.219900 -39.913418 28.167841 1.176617 47.931316 -5.559762 -6.744337 -7.797079 13.237959 -6.261714 -17.673794 -11.961263 -7.183662 47.867203 6.816006 8.250127 -27.237833 -12.750528 9.883988 
4.887511 47.413189 -21.391380 8.202465 -1.759037 -57.170753 40.593403 6.779472 4.224363 2.442982 1.961645 3.087415 -5.407332 -5.443938 0.379028 0.942775 -8.499804 40.097511 -11.455108 -1.767756 -0.089026 -24.800196 0.830459 -6.477631 -94.358749 5.000000 3.171277 -19.220518 -17.673658 22.093462 7.546589 -4.631229 0.232535 30.414333 76.722359 9.611931 103.794525 -5.000000 2.803682 31.433426 -6.999409 13.828520 -39.923481 28.548895 1.132087 48.706093 -5.733107 -7.119263 -8.083304 12.943634 -6.166771 -17.592951 -11.861233 -7.243788 48.991852 6.611249 8.357867 -27.862179 -13.001200 9.952677 
4.822644 47.268894 -21.472141 7.936349 -2.216979 -56.970322 40.828053 7.068953 4.511422 2.516098 1.903190 2.999239 -5.614331 -5.187052 0.379537 1.040253 -8.590086 39.919781 -11.474966 -1.962809 -0.099103 -24.993328 0.617106 -6.563713 -95.201454 5.000000 3.764523 -18.973909 -17.361322 22.239090 6.793458 -4.328773 0.216884 30.143387 76.738060 9.555067 104.293602 -5.000000 2.870428 31.685368 -7.149363 13.477060 -39.912323 28.916214 1.115244 49.412254 -5.901948 -7.497726 -8.373802 12.590457 -6.088088 -17.497904 -11.765937 -7.402767 50.019974 6.386289 8.356048 -28.431702 -13.178716 10.087283 
4.774735 47.154793 -21.543896 7.643174 -2.565575 -56.796783 41.016914 7.267640 4.670768 2.580894 1.854454 2.930907 -5.830854 -4.920510 0.379448 1.092251 -8.679620 39.812145 -11.504532 -2.109098 -0.106660 -25.146343 0.403113 -6.634995 -95.800804 5.000000 4.190433 -18.735929 -17.170067 22.279530 6.137968 -3.997075 0.199716 29.887808 76.709023 9.525316 104.721947 -5.000000 2.914420 31.931179 -7.299665 13.296486 -39.808556 29.116810 1.143144 49.888523 -6.028643 -7.758693 -8.565784 12.391651 -5.968905 -17.427702 -11.754513 -7.464477 50.903587 6.200946 8.370694 -28.907742 -13.404441 10.113147 
4.752259 47.085987 -21.602142 7.272018 -2.748750 -56.643143 41.169018 7.334834 4.628421 2.637585 1.825204 2.901621 -6.056904 -4.644310 0.377038 1.087581 -8.754629 39.821022 -11.563315 -2.206624 -0.111698 -25.232697 0.213428 -6.669688 -96.028969 5.000000 4.349846 -18.535313 -17.159508 22.186155 5.638644 -3.606888 0.179517 29.545065 76.631042 9.443808 105.040146 -5.000000 2.928305 32.156574 -7.467895 13.369601 -39.562660 29.115458 1.311444 50.035454 -6.106806 -7.924876 -8.637024 12.155193 -5.837001 -17.361338 -11.863585 -7.389552 51.493656 6.093691 8.386436 -29.229057 -13.582789 10.034472 
4.729785 47.017174 -21.660389 6.927598 -2.938747 -56.490891 41.322346 7.407951 4.599507 2.693992 1.786192 2.872028 -6.282841 -4.377766 0.376110 1.082885 -8.829628 39.831467 -11.612322 -2.294397 -0.116231 -25.318150 0.019476 -6.712557 -96.269409 5.000000 4.515433 -18.318619 -17.146399 22.073589 5.139461 -3.216701 0.159310 29.209877 76.556412 9.372084 105.357780 -5.000000 2.936011 32.380535 -7.642056 13.449740 -39.313133 29.089397 1.442785 50.163498 -6.182797 -8.068931 -8.732702 12.020530 -5.686315 -17.284431 -11.981807 -7.343485 52.084576 5.976306 8.377918 -29.590578 -13.717065 9.947329 
4.747037 46.996033 -21.689505 6.591537 -2.959614 -56.570686 41.419304 7.311974 4.540797 2.744324 1.776372 2.921130 -6.507969 -4.122337 0.367031 1.053818 -8.913366 39.832436 -11.700403 -2.204643 -0.121253 -25.437967 -0.130469 -6.745227 -96.163696 5.000000 4.447200 -18.010921 -17.145615 21.694084 4.797272 -3.070354 0.151728 29.195650 76.533119 9.417041 105.445602 -5.000000 2.883039 32.386276 -7.623023 13.543057 -38.948723 28.989317 1.801864 50.066601 -6.175276 -8.025977 -8.756724 11.902451 -5.730133 -17.299088 -12.104464 -7.086959 52.332497 5.849537 8.287670 -29.623520 -13.699040 9.818082 
4.764288 46.974884 -21.718616 6.264218 -2.984961 -56.661232 41.525463 7.206972 4.478639 2.794335 1.766561 2.969933 -6.723895 -3.865447 0.367597 1.024749 -8.997114 39.833508 -11.788107 -2.116855 -0.116717 -25.566683 -0.285914 -6.785967 -96.043427 5.000000 4.357623 -17.702911 -17.129986 21.318720 4.455080 -2.914254 0.143641 29.140368 76.511642 9.424024 105.523758 -5.000000 2.827532 32.400604 -7.611557 13.644550 -38.597652 28.891983 2.138892 49.998814 -6.165467 -8.004553 -8.778154 11.733033 -5.754852 -17.319511 -12.232237 -6.850600 52.570564 5.722527 8.186700 -29.658499 -13.622264 9.682372 
4.797424 46.976772 -21.737406 6.045002 -2.985549 -56.857697 41.602505 7.138992 4.482517 2.832700 1.737271 2.979690 -6.880434 -3.708035 0.363506 0.965696 -9.010739 39.905045 -11.816850 -2.011572 -0.101622 -25.668749 -0.416618 -6.804193 -95.821884 5.000000 4.209943 -17.418137 -17.043930 20.728342 4.308939 -2.854980 0.150334 29.155058 76.494225 9.450494 105.506653 -5.000000 2.775307 32.591431 -7.571273 13.580215 -38.290657 28.837599 2.485171 49.872776 -6.145980 -7.972277 -8.722247 11.771796 -5.826422 -17.386341 -12.289515 -6.539643 52.657631 5.634594 8.096851 -29.664484 -13.597437 9.723898 
4.841151 46.994015 -21.749308 5.883385 -2.963773 -57.130405 41.646305 7.080267 4.527170 2.879905 1.698241 2.979398 -6.978158 -3.619672 0.360003 0.869052 -8.978006 40.040462 -11.797113 -1.894540 -0.095576 -25.751850 -0.540806 -6.813377 -95.522179 5.000000 4.001828 -17.149918 -16.898058 19.985283 4.288898 -2.845958 0.140102 29.231867 76.483101 9.508651 105.432465 -5.000000 2.727527 32.897282 -7.508020 13.429013 -37.978291 28.857243 2.846218 49.713726 -6.165372 -7.954332 -8.698131 11.825979 -5.911989 -17.496254 -12.291818 -6.193565 52.665165 5.566171 7.987792 -29.670574 -13.668739 9.764267 
